<svg width="24" height="22" viewBox="0 0 24 22" fill="none" xmlns="http://www.w3.org/2000/svg">
<path d="M23.04 0H0.96C0.429 0 0 0.389139 0 0.870801V20.8992C0 21.3809 0.429 21.77 0.96 21.77H23.04C23.571 21.77 24 21.3809 24 20.8992V0.870801C24 0.389139 23.571 0 23.04 0ZM22.08 20.0284H16.557V13.3396H19.677L20.145 10.055H16.557V7.95694C16.557 7.0045 16.848 6.35685 18.351 6.35685H20.268V3.41789C19.935 3.37707 18.798 3.28727 17.472 3.28727C14.706 3.28727 12.813 4.81934 12.813 7.63039V10.0523H9.687V13.3369H12.816V20.0284H1.92V1.7416H22.08V20.0284Z" fill="white"/>
</svg>
