<svg width="26" height="20" viewBox="0 0 26 20" fill="none" xmlns="http://www.w3.org/2000/svg">
<path d="M25 0.823915C25 0.823915 22.7985 2.00344 21.5745 2.3379C20.9175 1.65266 20.0444 1.16698 19.0731 0.946544C18.1019 0.72611 17.0795 0.781559 16.1441 1.10539C15.2087 1.42922 14.4056 2.00581 13.8433 2.75718C13.2809 3.50855 12.9866 4.39844 13 5.3065V6.29603C11.0829 6.34112 9.18321 5.95545 7.47019 5.17335C5.75717 4.39126 4.28398 3.23703 3.18182 1.81345C3.18182 1.81345 -1.18182 10.7192 8.63636 14.6774C6.38967 16.0607 3.71326 16.7543 1 16.6564C10.8182 21.6041 22.8182 16.6564 22.8182 5.27681C22.8182 5.00172 22.7876 4.72663 22.7309 4.4555C23.8436 3.46003 25 0.823915 25 0.823915Z" stroke="white" stroke-width="1.5" stroke-linecap="round" stroke-linejoin="round"/>
</svg>
