<svg width="21" height="22" viewBox="0 0 21 22" fill="none" xmlns="http://www.w3.org/2000/svg">
<path d="M13.0909 7.91637H15.2727V9.89546H13.0909V7.91637ZM15.2727 3.95819H13.0909V5.93728H15.2727V3.95819ZM8.72727 13.8536H10.9091V11.8746H8.72727V13.8536ZM10.9091 3.95819H8.72727V5.93728H10.9091V3.95819ZM8.72727 9.89546H10.9091V7.91637H8.72727V9.89546ZM6.54545 3.95819H4.36364V5.93728H6.54545V3.95819ZM6.54545 7.91637H4.36364V9.89546H6.54545V7.91637ZM12.6 19.7909H10.9091V16.3275H8.72727V19.7909H2.18182V1.97909H17.4545V9.92515C18.2291 9.98452 18.9709 10.2022 19.6364 10.5189V0H0V21.77H14.0836C13.6364 21.2159 13.0909 20.543 12.6 19.7909ZM4.36364 17.8118H6.54545V15.8327H4.36364V17.8118ZM6.54545 11.8746H4.36364V13.8536H6.54545V11.8746ZM20.7273 15.338C20.7273 17.9108 16.9091 21.77 16.9091 21.77C16.9091 21.77 13.0909 17.9108 13.0909 15.338C13.0909 13.4578 14.8364 11.8746 16.9091 11.8746C18.9818 11.8746 20.7273 13.4578 20.7273 15.338ZM18.2182 15.4369C18.2182 14.8432 17.5636 14.2495 16.9091 14.2495C16.2545 14.2495 15.6 14.7442 15.6 15.4369C15.6 16.0307 16.1455 16.6244 16.9091 16.6244C17.6727 16.6244 18.3273 16.0307 18.2182 15.4369Z" fill="white"/>
</svg>
