<svg width="24" height="16" viewBox="0 0 24 16" fill="none" xmlns="http://www.w3.org/2000/svg">
<path d="M22.2857 0H1.71429C1.25963 0 0.823593 0.163828 0.502103 0.455443C0.180612 0.747059 0 1.14257 0 1.55498V13.9948C0 14.4072 0.180612 14.8027 0.502103 15.0944C0.823593 15.386 1.25963 15.5498 1.71429 15.5498H22.2857C22.7404 15.5498 23.1764 15.386 23.4979 15.0944C23.8194 14.8027 24 14.4072 24 13.9948V1.55498C24 1.14257 23.8194 0.747059 23.4979 0.455443C23.1764 0.163828 22.7404 0 22.2857 0ZM20.4 1.55498L12 6.82636L3.6 1.55498H20.4ZM1.71429 13.9948V2.2625L11.5114 8.41244C11.6549 8.50273 11.8254 8.55111 12 8.55111C12.1746 8.55111 12.3451 8.50273 12.4886 8.41244L22.2857 2.2625V13.9948H1.71429Z" fill="white"/>
</svg>
