<svg width="26" height="22" viewBox="0 0 26 22" fill="none" xmlns="http://www.w3.org/2000/svg">
<path d="M1 6.86107C1 1 7.46154 1 13 1C18.5385 1 25 1 25 6.86107C25 13.5594 18.5385 6.02378 18.5385 6.02378H7.46154C7.46154 6.02378 1 13.5594 1 6.86107ZM8.38462 8.53567C8.38462 8.53567 3.76923 12.7221 3.76923 20.2578H22.2308C22.2308 12.7221 17.6154 8.53567 17.6154 8.53567H8.38462Z" stroke="white" stroke-width="2" stroke-linecap="round" stroke-linejoin="round"/>
<path d="M12.9999 17.7451C15.0391 17.7451 16.6922 16.2459 16.6922 14.3965C16.6922 12.5471 15.0391 11.0479 12.9999 11.0479C10.9607 11.0479 9.30762 12.5471 9.30762 14.3965C9.30762 16.2459 10.9607 17.7451 12.9999 17.7451Z" stroke="white" stroke-width="2" stroke-linecap="round" stroke-linejoin="round"/>
</svg>
